<?xml version="1.0" encoding="UTF-8" standalone="no"?>
<svg
   xmlns:dc="http://purl.org/dc/elements/1.1/"
   xmlns:cc="http://creativecommons.org/ns#"
   xmlns:rdf="http://www.w3.org/1999/02/22-rdf-syntax-ns#"
   xmlns:svg="http://www.w3.org/2000/svg"
   xmlns="http://www.w3.org/2000/svg"
   viewBox="0 0 1440.4667 561.10669"
   height="561.10669"
   width="1440.4667"
   xml:space="preserve"
   id="svg2"
   version="1.1"><metadata
     id="metadata8"><rdf:RDF><cc:Work
         rdf:about=""><dc:format>image/svg+xml</dc:format><dc:type
           rdf:resource="http://purl.org/dc/dcmitype/StillImage" /></cc:Work></rdf:RDF></metadata><defs
     id="defs6" /><g
     transform="matrix(1.3333333,0,0,-1.3333333,0,561.10667)"
     id="g10"><g
       transform="scale(0.1)"
       id="g12"><path
         id="path14"
         style="fill:#f25d1e;fill-opacity:1;fill-rule:nonzero;stroke:none"
         d="m 3193.5,3425.99 c -65.8,-277.4 -128.3,-555.6 -192.6,-833.4 82.5,-3.9 161.3,44.9 203.4,114.3 35.2,64.3 38.6,139.8 59.4,209.1 143,0.1 286,-0.8 429,0.4 55.4,-0.4 109.2,25.8 143,69.7 56.9,67.2 60.6,159 83.7,240.3 14.8,51.2 12.7,112.1 -25.6,152.8 -31.9,37.6 -83.3,47.8 -130.3,46.7 -190,0 -380,-0.4 -570,0.1 z m 238.3,752.5 c 57.8,21.7 119.8,29.4 181.2,29.8 221.2,-0.1 442.3,0 663.5,0 -154.5,-672.6 -310.3,-1344.8 -465.5,-2017.2 -47.2,-208.7 -242.3,-375.1 -457.4,-380.4 -233.9,-0.2 -467.7,0.1 -701.6,-0.1 148,643.1 297.1,1286 445.2,1929.1 11.5,46.1 18.4,93.5 34.9,138.1 48.9,138 161.4,252.2 299.7,300.7" /><path
         id="path16"
         style="fill:#f25d1e;fill-opacity:1;fill-rule:nonzero;stroke:none"
         d="m 3337.4,3237.39 c 132.1,2.1 264.2,0.4 396.3,0.8 -10.5,-44.9 -21,-89.9 -31.3,-134.9 -131.8,-0.1 -263.6,-0.2 -395.3,0.1 9.4,44.8 21,89.1 30.3,134" /><path
         id="path18"
         style="fill:#f25d1e;fill-opacity:1;fill-rule:nonzero;stroke:none"
         d="m 7833.8,708.488 c 19.6,105.203 107.8,190.703 210.9,215.203 103.6,25.7 231.6,8 297,-85 -1.2,25.7 -2,51.399 -3.4,76.899 66.5,0.5 132.9,0 199.4,0.301 0.2,-95.102 0.6,-190.2 -0.2,-285.403 -66.3,0.903 -132.6,-0.597 -198.8,1.004 -33.7,58.598 -81.5,123.899 -155.4,127.199 -50,6.399 -112.5,-33.101 -99.5,-89.3 14.1,-50.399 74.3,-60.2 118.1,-71.102 114.8,-19.801 240.9,-38.801 327.1,-125 116.4,-129.199 68.9,-366.898 -90,-439.8984 -134.5,-62.1992 -309.2,-37.30076 -411.8,73.0004 1.8,-29.3012 3.3,-58.8012 5.4,-88.1019 -65.9,0.3007 -131.7,-0.2969 -197.5,0.4023 1.3,101.7966 -1.4,203.6996 1.5,305.3986 69.1,-1.598 138.4,-0.5 207.6,-0.699 38.6,-48.801 79.2,-102.301 140.6,-123 44.2,-14.602 101,-14.801 135.4,21 28.4,28.3 22.7,81.699 -11.4,102.8 -43.1,27.7 -96.2,29.098 -145,38.399 -93.1,14.601 -191.5,37.699 -262.5,103.801 -65.3,60.398 -84.8,157.3 -67.5,242.097" /><path
         id="path20"
         style="fill:#f25d1e;fill-opacity:1;fill-rule:nonzero;stroke:none"
         d="M 1.40234,916.391 C 264.398,915.09 527.398,916.289 790.398,915.789 c 0,-109.098 -0.097,-218.199 0.102,-327.301 -52.602,-0.199 -105.102,-0.097 -157.699,-0.097 -17.699,47.898 -36,95.601 -52.199,144.101 -84.2,1.797 -168.403,0.297 -252.602,0.699 -0.199,-47.101 0.301,-94.3 -0.699,-141.402 55.199,-2 110.301,-0.5 165.5,-1 0,-66.699 0.301,-133.398 -0.102,-200.199 -54.898,0.301 -109.801,0.199 -164.699,0.101 -0.398,-63 0.5,-126 -0.602,-189 39.301,-1.3 78.602,-0.902 118,-0.902 0.102,-60.797 0,-121.5976 0,-182.3984 -148.3,-0.1015 -296.699,-0.1015 -444.999562,0 0,60.8008 -0.097657,121.6014 0,182.3984 29.999962,0.102 59.999962,0.102 89.999962,0.102 -0.6992,177.699 1.4024,355.398 -1.0976,533.101 -29.8008,-1.004 -59.5,-1.004 -89.3008,0 1.19922,60.797 -0.898438,121.598 1.40234,182.399" /><path
         id="path22"
         style="fill:#f25d1e;fill-opacity:1;fill-rule:nonzero;stroke:none"
         d="m 1162.9,733.09 c -0.1,-72.399 -0.1,-144.801 0,-217.301 53.4,0.801 111.5,-5 159.7,22.602 62.8,38 58.6,149.3 -9.6,179.699 -46.9,22.101 -100,14 -150.1,15 z M 838.902,916.492 c 158.098,-1.703 316.098,0 474.198,-0.801 77.9,-1.601 159.5,-25.402 214.6,-82.902 71.3,-70.898 87.7,-181.398 67.4,-276.598 -15.2,-75.3 -66,-142.601 -136,-175.101 -91.5,-46.602 -197,-33.5 -296,-35.199 -0.4,-48.399 -0.4,-96.801 0,-145.2 31.3,0.098 62.7,0.2 94.1,0.399 1.6,-60.699 0.1,-121.5002 1,-182.3009 -140.4,-0.3008 -280.802,-1.5977 -421.102,0.7031 2.004,60.5976 -0.598,121.1988 1.703,181.6988 30.5,-0.402 61,-0.5 91.597,-0.402 -0.097,177.5 0.204,355 -0.199,532.5 -30.699,0 -61.5,0 -92.301,0 0.403,61.102 -1.097,122.199 1.004,183.203" /><path
         id="path24"
         style="fill:#f25d1e;fill-opacity:1;fill-rule:nonzero;stroke:none"
         d="m 1645.4,915.789 c 252.4,0.102 504.9,-0.098 757.3,0.102 0.3,-106.7 0.1,-213.399 0.1,-320.102 -48.8,0 -97.6,-0.098 -146.3,0.102 -15.8,46.5 -29.7,93.597 -45.9,140 -23.3,-0.102 -46.6,0 -69.9,0 -0.6,-178.399 -0.3,-356.7 -0.1,-535.102 29.9,0.199 60,0.102 90,-0.398 -0.3,-60.602 -0.2,-121.3012 -0.1,-181.9027 -138.4,-0.1992 -276.8,-0.1992 -415.2,0 0.2,60.8008 0,121.5037 0.1,182.2027 29.9,0.2 59.9,0.2 89.9,0.098 0.2,178.301 0.1,356.703 0,535 -23.3,0 -46.5,0 -69.7,-0.098 -14.1,-46.902 -30.1,-93.199 -45.4,-139.703 -48.3,-0.297 -96.6,-0.297 -144.9,-0.097 0.1,106.699 0,213.3 0.1,319.898" /><path
         id="path26"
         style="fill:#f25d1e;fill-opacity:1;fill-rule:nonzero;stroke:none"
         d="m 2773.2,915.988 c 139.8,-0.398 279.7,-0.199 419.5,0 -0.1,-61.097 1.1,-122.297 -0.7,-183.398 -31.4,0.801 -62.7,0.898 -94,0.601 0.5,-124.703 -1.4,-249.5 0.9,-374.199 -0.6,-50 20.5,-104.703 69.1,-125.703 56.4,-22.699 130.5,-21.098 175.8,23.602 26.9,26.398 34.6,65.699 34.2,101.898 -0.3,124.801 0,249.602 -0.2,374.402 -30.8,0.098 -61.5,0.098 -92.3,0 -0.3,60.899 -0.1,121.801 -0.1,182.598 139.1,0.102 278.2,-0.098 417.3,0.102 0.1,-60.899 0.6,-121.899 -0.3,-182.903 -29.1,0.301 -58.1,0.403 -87.1,0 0.2,-134.699 0.1,-269.398 0.1,-404.199 -0.4,-80 -24.6,-163.098 -81.6,-221.297 C 3470.1,40.2891 3377.4,8.39063 3286.7,2.28906 c -103,-7.09765 -213.9,6.80078 -299.5,68.90234 -78.9,55.0976 -123.7,151.8986 -122,247.2966 0.5,138.004 -0.3,276.102 0.5,414.102 -30.9,0.801 -61.9,0.898 -92.8,0.699 0.2,60.902 -0.3,121.801 0.3,182.699" /><path
         id="path28"
         style="fill:#f25d1e;fill-opacity:1;fill-rule:nonzero;stroke:none"
         d="m 3740.6,915.891 c 107,0 214,-0.301 321.1,0.097 99.5,-162.5 197,-326.297 296.7,-488.699 -4.2,102 -3.3,204.203 -8.7,306.102 -31.6,-0.2 -63.1,-0.2 -94.6,0.3 0.5,60.7 0.1,121.399 0.3,182.098 137.4,0.199 274.7,-0.301 412.1,0.199 0.8,-60.797 0.3,-121.797 0.4,-182.699 -30.1,0 -60.1,0 -90,-0.199 0.4,-238 -0.7,-476 0.5,-714.0002 -64.9,-1.6992 -129.9,-0.1992 -194.8,-0.8984 -110.5,177.7966 -217.1,357.9996 -328.7,535.0976 4.4,-117.398 4.1,-235 5.6,-352.5 31.6,0.102 63.2,0.102 94.9,0 0.1,-60.797 0,-121.5976 0,-182.3984 -138.3,0 -276.7,-0.1015 -415,0 0,60.8008 -0.1,121.6014 0,182.3984 30.7,0.102 61.5,0.102 92.3,-0.199 0.6,177.601 0.1,355.101 0.2,532.601 -31,-0.203 -61.9,0 -92.9,0.801 0.8,60.699 0,121.297 0.6,181.899" /><path
         id="path30"
         style="fill:#f25d1e;fill-opacity:1;fill-rule:nonzero;stroke:none"
         d="m 4706.8,914.289 c 140.4,3.402 280.8,0.801 421.2,1.402 -0.2,-60.8 0,-121.601 -0.1,-182.402 -31,0.199 -62,0.102 -92.9,-0.598 0.9,-177.3 0.2,-354.601 0.4,-531.902 30.6,0 61.1,0 91.8,0.402 1.4,-61 0.7,-121.9996 0.4,-182.9996 -140.1,1.0977 -280.3,-1.3008 -420.5,1.1992 1.9,60.6016 -0.4,121.1994 1.5,181.8004 30.6,-0.402 61.2,-0.402 91.8,-0.402 -0.1,177.5 0.1,355 -0.1,532.5 -30.9,0 -61.6,0 -92.4,0 -0.5,60.402 1,120.703 -1.1,181" /><path
         id="path32"
         style="fill:#f25d1e;fill-opacity:1;fill-rule:nonzero;stroke:none"
         d="m 5165.4,915.789 c 125.8,0.102 251.5,-0.199 377.3,0.102 0,-61 0.8,-122 -0.5,-183.102 -27,0.5 -53.8,0.602 -80.6,0.301 41.9,-142 82.8,-284.5 125.1,-426.5 44.9,141.398 84.5,284.398 127.2,426.398 -26.8,0.403 -53.6,0.301 -80.3,-0.097 -1.3,61 -0.6,122 -0.5,183 124.8,0 249.5,-0.403 374.3,0.199 1,-60.899 0.3,-121.801 0.5,-182.699 -23.3,0 -46.4,-0.102 -69.5,-0.2 C 5859.1,494.992 5779.2,257.09 5700.5,18.6914 5625.2,17.9922 5550,18.3906 5474.7,18.4883 5396,257.09 5314.9,494.891 5235.8,733.289 c -23.1,0 -46.2,-0.199 -69.2,-0.797 -2.6,61.098 -0.7,122.199 -1.2,183.297" /><path
         id="path34"
         style="fill:#f25d1e;fill-opacity:1;fill-rule:nonzero;stroke:none"
         d="m 6045.4,915.789 c 268.3,0 536.7,0 805,0 0.1,-109.098 -0.1,-218.199 0.1,-327.301 -52.2,-0.297 -104.5,-0.097 -156.7,-0.199 -17.9,48.102 -36.5,95.902 -53.4,144.301 -89.2,1.5 -178.4,0.301 -267.5,0.601 -0.1,-47.5 -0.3,-95 0.2,-142.5 59.2,0 118.4,0.7 177.6,-0.402 -0.6,-66.5 -0.2,-133 -0.3,-199.5 -59.2,-0.098 -118.3,0.102 -177.5,0 -0.1,-63.398 -0.3,-126.699 0.2,-190.098 88.8,0.399 177.6,-0.203 266.5,0.297 17.4,57.602 36.1,114.703 53.5,172.203 52.5,0.098 105,0.598 157.6,-0.3 -0.6,-118.2 -0.3,-236.301 -0.2,-354.4027 -268.4,-0.1992 -536.8,-0.2969 -805.3,0 0.2,60.7031 0.2,121.4027 0,181.9997 31.2,-0.097 62.5,0.203 93.7,1.801 -2.4,176.902 -0.5,353.902 -1,530.902 -31.2,-0.3 -62.3,0 -93.4,1.297 1.8,60.403 0.5,120.903 0.9,181.301" /><path
         id="path36"
         style="fill:#f25d1e;fill-opacity:1;fill-rule:nonzero;stroke:none"
         d="m 7262.9,733.191 c -0.1,-61.601 -0.1,-123.199 0,-184.902 55.4,3 114.5,-9.398 167,13.602 62.2,28.101 61.3,134.601 -2.9,159.601 -52.1,20.899 -109.7,8.598 -164.1,11.699 z m -327.5,182.598 c 175.8,0.199 351.7,-0.199 527.5,0.199 53.4,2.102 109.1,-4.097 155.6,-32.398 98.8,-55.899 131.1,-190.301 90.1,-291.801 -22.3,-54.699 -75.1,-86.5 -126.8,-109.098 42.3,-13.3 93.2,-34.5 101.2,-84.101 10.4,-65.301 2.5,-131.899 4.9,-197.699 26.3,-0.102 52.7,0 79.3,0.199 1.7,-60.699 0,-121.3986 1.1,-182.1994 -105.1,-1.3008 -210.3,-0.1015 -315.4,-0.6015 -0.8,86.9999 1.7,173.9999 -1.2,260.9019 -2.1,37.7 -5.8,84.2 -43.1,104.399 -45.2,21.898 -97.3,13.101 -145.7,14.601 -0.1,-65.8 -0.2,-131.601 0.2,-197.5 23.1,0.098 46.4,0.2 69.7,0.098 0.1,-60.797 0,-121.5976 0.1,-182.4999 -132.6,0.1992 -265.2,-0.1993 -397.7,0.3007 0.2,60.6016 0.3,121.1992 0,181.8012 29.8,0.597 59.6,0.597 89.5,0.097 1.8,177.301 -0.2,354.703 1,532.004 -30.3,0.699 -60.5,0.996 -90.7,1.297 0.7,60.699 0.2,121.301 0.4,182" /><path
         id="path38"
         style="fill:#f25d1e;fill-opacity:1;fill-rule:nonzero;stroke:none"
         d="m 8658.6,916.289 c 139.8,-1.199 279.6,0 419.4,-0.598 -0.2,-60.8 0,-121.601 -0.1,-182.402 -30.5,-0.199 -61,0 -91.4,0.703 -2.5,-177.703 -0.4,-355.504 -1,-533.203 30.5,0 61.1,0 91.9,0.199 1.5,-60.398 -0.7,-120.8982 1.4,-181.3982 -140.4,-2.5 -280.9,-1.1992 -421.3,-0.6992 1.3,60.8985 -1.3,121.8004 1.7,182.6014 30.3,-0.703 60.7,-0.801 91.2,-0.703 -0.1,177.5 0.1,355 -0.1,532.5 -30.9,0 -61.7,0 -92.4,0 0.2,61 -0.8,122 0.7,183" /><path
         id="path40"
         style="fill:#f25d1e;fill-opacity:1;fill-rule:nonzero;stroke:none"
         d="m 9125.4,915.789 c 252.4,0.102 504.8,-0.199 757.3,0.199 0.3,-106.797 0.1,-213.496 0.1,-320.199 -48.9,0 -97.8,-0.199 -146.6,0.199 -14.2,46.903 -30.1,93.203 -44.5,139.903 -23.8,0 -47.6,-0.102 -71.2,-0.102 -0.1,-178.398 -0.2,-356.699 0.1,-535 30.6,0.102 61.4,0.102 92.2,0 0.1,-60.797 0,-121.5976 0.1,-182.4999 -139.2,0.1015 -278.4,-0.0977 -417.6,0.1992 0.1,60.8008 0,121.5037 0.1,182.2027 29.9,0.2 59.9,0.2 89.9,0.098 0.1,178.402 0.1,356.703 0,535.102 -23.1,0 -46.1,-0.2 -69.1,-0.403 -14.9,-46.496 -30.8,-92.699 -44.9,-139.398 -48.7,-0.5 -97.4,-0.399 -146,-0.199 0.1,106.699 0,213.3 0.1,319.898" /><path
         id="path42"
         style="fill:#f25d1e;fill-opacity:1;fill-rule:nonzero;stroke:none"
         d="m 9910.7,915.891 c 131.5,-0.2 263,-0.102 394.6,0 0.4,-60.602 -0.5,-121.102 0.6,-181.602 -23.6,-0.898 -47.2,-1.098 -70.5,-1.199 41.4,-68.301 83.8,-136 124.3,-204.899 44,66.801 84.7,135.801 124.6,205.098 -22.2,0.102 -44.4,0.102 -66.4,0 0.4,61.102 -1.3,122.301 1.1,183.301 127.9,-1.801 255.8,-0.399 383.7,-0.699 0.5,-60.5 -0.6,-121.2 0.8,-181.801 -23.3,-0.801 -46.6,-1 -69.7,-1 -85.9,-128.399 -175.4,-254.699 -259.6,-384.199 -3.7,-49.301 -0.5,-98.801 -1.1,-148.2 31.2,0 62.5,0.2 93.9,0.598 2.1,-60.801 0.1,-121.5976 1.3,-182.3984 -140.5,-0.5 -281,-1.8008 -421.3,0.6992 2,60.5 -0.2,121.0002 1.5,181.5002 29.9,-0.5 59.9,-0.5 90,0.601 -2.3,49.098 1.7,98.2 -2,147.098 -82.7,129.301 -171.4,254.801 -254.9,383.703 -24,0.598 -47.8,0.996 -71.5,1.598 0.7,60.601 -0.2,121.199 0.6,181.801" /><path
         id="path44"
         style="fill:#2f62b6;fill-opacity:1;fill-rule:nonzero;stroke:none"
         d="m 2090.5,3409.19 c -66.3,-29.7 -124.7,-87.8 -139.4,-160.9 -49.8,-218.7 -100.9,-437.2 -150.7,-656 104.8,-3.8 205.6,75.3 228.3,177.3 11.4,48.8 22,97.8 34.6,146.4 106.7,-0.2 213.4,-0.4 320.1,-0.1 99.1,6.7 187.4,87.4 206.2,184.7 -161.4,0.5 -322.8,-0.1 -484.2,0.3 10.7,45.6 22,91 31.3,136.9 139,1.3 278,0 417,0.6 105.8,-0.4 200.6,84.7 219.8,187.3 -173.6,0.3 -347.3,0 -521,0.2 -54,-1.4 -110.7,4 -162,-16.7 z m -269.6,39 c 48.6,210.8 242.5,383.7 461.7,389.9 233,0.3 466.1,0.4 699.2,-0.1 -101,-439.4 -202.5,-878.7 -304.1,-1317.9 -57,-191.8 -243.7,-339.6 -445.3,-341.8 -235,0 -470.1,-0.1 -705.2,0.1 98.1,423.2 194.6,846.8 293.7,1269.8" /><path
         id="path46"
         style="fill:#2f62b6;fill-opacity:1;fill-rule:nonzero;stroke:none"
         d="m 6347.5,2973.59 c -40.6,-36.2 -52.2,-93.8 -52.1,-145.9 1.3,-50.8 13.6,-108 56.9,-139.9 41.3,-29.9 97.1,-26.1 143.4,-10.9 -0.5,104.8 -0.9,209.6 0.2,314.4 -48.5,14.8 -107.8,17.5 -148.4,-17.7 z m 147.8,317.1 c 32.5,0.2 65,0.2 97.6,0.1 0.1,-224.4 -0.1,-448.8 0.1,-673.2 -75.5,-33.7 -162.8,-40.7 -243.1,-21.8 -78.9,19.8 -136.8,91.5 -148.4,170.8 -15.6,90.8 -2.5,198.2 70.4,262.3 60,53.6 148.6,58.6 223.5,39.7 -0.1,74 0,148.1 -0.1,222.1" /><path
         id="path48"
         style="fill:#2f62b6;fill-opacity:1;fill-rule:nonzero;stroke:none"
         d="m 8246.2,3264.49 c 37.8,20.8 92.5,-11.1 85.8,-55.8 -2.7,-48.8 -70.3,-67.6 -102.1,-33.8 -26.2,26 -17.7,74.5 16.3,89.6" /><path
         id="path50"
         style="fill:#2f62b6;fill-opacity:1;fill-rule:nonzero;stroke:none"
         d="m 5812.9,3238.29 c 112.5,-0.1 225.1,0.2 337.6,-0.1 -0.1,-29.1 -0.1,-58.3 -0.1,-87.4 -79.2,-0.1 -158.3,0 -237.5,-0.1 -0.1,-61.6 0,-123.2 0,-184.8 71.4,0.2 142.8,-0.7 214.1,0.6 0.8,-28.3 1.1,-56.5 1.6,-84.8 -71.9,-2.1 -143.8,-0.4 -215.7,-1 0.3,-65.9 -0.9,-131.9 0.8,-197.9 78.6,1.5 157.2,-0.5 235.8,1.2 1,-29.3 1.1,-58.7 1,-88 -112.5,-0.5 -225.1,-0.1 -337.6,-0.2 0,214.2 0,428.3 0,642.5" /><path
         id="path52"
         style="fill:#2f62b6;fill-opacity:1;fill-rule:nonzero;stroke:none"
         d="m 7973.1,3184.99 c 32.6,9.5 65,19.9 97.9,28.6 -1.1,-46.5 -0.3,-93.1 -0.8,-139.6 31.6,-0.8 63.4,-0.8 95.2,-0.7 -0.1,-25 0,-50 0,-75 -31.7,0 -63.4,0 -94.9,0 0.9,-93.3 -2,-186.7 1.2,-279.8 6.1,-43.6 60.2,-46.8 93.9,-36.7 -0.3,-27.9 -0.3,-55.9 0,-83.9 -48.8,-10.7 -105.4,-15.2 -148,15.6 -35.4,26.1 -45.2,73.2 -44.8,114.7 0.1,90.1 0.1,180.1 0.1,270.1 -21.7,0 -43.4,0 -65,0 -0.1,25.1 -0.1,50.2 0,75.2 21.2,-0.1 42.6,-0.4 64,-0.9 1.4,37.5 1,74.9 1.2,112.4" /><path
         id="path54"
         style="fill:#2f62b6;fill-opacity:1;fill-rule:nonzero;stroke:none"
         d="m 7173.7,3017.69 c 66.2,79.1 191.1,84.4 276,33.7 -11.1,-23.9 -21.9,-47.9 -31.8,-72.2 -36.7,19.6 -81.4,30.8 -121.4,14.7 -49.8,-20.2 -73.1,-75.9 -77.7,-126.1 -5.4,-60.5 2,-131 51.5,-172.8 40.4,-36.8 102.6,-28.5 146.6,-2.6 10.9,-24.7 22,-49.4 32.8,-74.3 -67.2,-39.3 -155.3,-44.6 -224.7,-7.9 -62.6,34.2 -98.5,103.4 -107,172.4 -9.4,81 -0.6,171.6 55.7,235.1" /><path
         id="path56"
         style="fill:#2f62b6;fill-opacity:1;fill-rule:nonzero;stroke:none"
         d="m 7602.4,2798.89 c -44,-30.2 -38.6,-109 12.8,-128.4 47.4,-19.9 101,-13.3 149.8,-1.7 0.7,55.3 0,110.5 0.5,165.8 -55,-5 -115.8,-2.9 -163.1,-35.7 z m -95.8,251.1 c 80.9,34 174.3,45.9 259.2,20.5 56.8,-16.5 92.8,-74.3 92,-132 0.6,-106.6 -0.4,-213.3 0.4,-319.9 -75.4,-34.4 -161.6,-38.6 -242.6,-27.4 -51.3,7.5 -106,33.3 -125.9,84.3 -21.3,58.9 -11.5,135.9 44.3,172.5 67.9,43.9 152.5,49 231.2,53 2,36.2 -1.8,82 -40.1,98.4 -62.8,24.6 -132.7,6.1 -192.8,-17.8 -8.7,22.8 -17.2,45.6 -25.7,68.4" /><path
         id="path58"
         style="fill:#2f62b6;fill-opacity:1;fill-rule:nonzero;stroke:none"
         d="m 8556.6,2995.19 c -55.3,-30.2 -67.2,-99.5 -68,-156.9 0.9,-55.9 10,-121.3 58.8,-156.5 38,-23.8 94.5,-18.2 124.1,17 30.1,35.7 37.7,84.2 39.1,129.4 0.6,48.8 -5.7,101.4 -36,141.5 -27,35.2 -78.9,42.8 -118,25.5 z m -30.1,77.2 c 50.4,16.5 107.1,15.6 156.7,-3.4 68.2,-28 110.7,-97.7 122,-168.5 12.9,-81.2 4.7,-171.2 -45.5,-239.1 -70.9,-98.3 -236.5,-102.1 -312.7,-8.4 -57.6,67.2 -64.3,162 -52.7,246.1 11.3,74.5 57.7,149.1 132.2,173.3" /><path
         id="path60"
         style="fill:#2f62b6;fill-opacity:1;fill-rule:nonzero;stroke:none"
         d="m 8872.8,3050.29 c 75.9,29.6 158.9,39.4 239.8,30.1 45,-5.7 92.9,-23.4 119.4,-62.6 23.7,-34.5 25.5,-78.2 26,-118.7 -0.5,-101.2 0.6,-202.4 -0.6,-303.6 -33.1,0.4 -66.1,0.4 -99,0.1 -1.7,107.4 0.7,214.9 -1.1,322.3 0,29.4 -13.1,60.9 -41,73.8 -45.3,20.7 -97.3,11.6 -143.5,-1 0.2,-131.7 0.1,-263.3 0.1,-394.9 -33.4,0 -66.7,0 -100,0 -0.1,151.5 0.1,303 -0.1,454.5" /><path
         id="path62"
         style="fill:#2f62b6;fill-opacity:1;fill-rule:nonzero;stroke:none"
         d="m 6674.7,3072.39 c 32.7,1.1 65.4,1.2 98.2,0.9 0.6,-105.3 -1.2,-210.7 0.8,-315.9 -0.7,-33.3 14.7,-69.6 48,-81.6 42.3,-14.5 88.5,-7.2 130.9,3.9 0.7,131.2 0.1,262.4 0.3,393.6 32.1,-0.1 64.2,-0.1 96.4,0.9 2.8,-151.8 0,-303.7 1.4,-455.5 -64.8,-28.6 -137.1,-35.5 -207.2,-32.1 -51.3,3.2 -107.5,19.1 -138.6,63.1 -27.4,36.9 -30.8,84.7 -29.7,128.9 0,98 0.9,195.9 -0.5,293.8" /><path
         id="path64"
         style="fill:#2f62b6;fill-opacity:1;fill-rule:nonzero;stroke:none"
         d="m 8222.9,3073.29 c 33.3,0.1 66.6,0.1 100,0 0,-159.2 0,-318.3 0,-477.5 -33.4,0 -66.7,0 -100,0 -0.1,159.2 0,318.3 0,477.5" /><path
         id="path66"
         style="fill:#2f62b6;fill-opacity:1;fill-rule:nonzero;stroke:none"
         d="m 5330.5,2381.99 c -0.1,-15.7 -0.1,-31.4 0,-47.1 20.3,3.1 56,-5.5 57.5,24.5 -7,25.7 -37.7,19.2 -57.5,22.6 z m -30.9,39 c -69.3,-40.7 -70.1,-155.9 -0.5,-196.8 37.3,-25.5 85.8,-16.1 122.7,5.3 -11.3,6.3 -23.6,10.6 -35.9,14.1 -18.4,22.9 -24.9,59.6 -55,69.9 -0.6,-24.4 -0.5,-48.8 -0.5,-73.2 -11.2,0.6 -22.2,1.2 -33.2,1.7 1.3,54.6 0.3,109.3 0.8,163.9 35.9,-2.5 77.4,8.1 109.1,-13.5 27.4,-28.3 10.9,-75.8 -27.1,-83.7 16,-24.9 32.8,-49.4 46.7,-75.6 27.8,38.2 45.3,88.5 25,134.1 -20.2,59.9 -98.8,88.9 -152.1,53.8 z m 17.2,41 c 74.7,21.3 160,-27.9 176.4,-104.3 22.1,-76 -31.3,-162.5 -109.3,-176.4 -84.2,-21.7 -176.4,50 -174,137.2 -4.2,65.3 43.3,128.7 106.9,143.5" /><path
         id="path68"
         style="fill:#33b440;fill-opacity:1;fill-rule:nonzero;stroke:none"
         d="m 4440.8,3247.59 c 60.4,-18.3 124.8,-5.6 186.9,-9.3 -49.4,-215.3 -99.6,-430.3 -148.3,-645.8 106.6,-4.6 208.3,77.7 229.1,181.7 35.5,154.7 72,309.2 107.4,463.9 103,0.4 206,0.1 309.1,0.2 3.1,35.2 8.2,72.8 -7.4,106 -20,48.9 -72.3,81.2 -124.9,79.1 -210.7,-0.2 -421.4,0 -632.1,-0.1 -17.8,-67.7 10.6,-150.9 80.2,-175.7 z m -9.4,492.9 c 82.9,63.3 187,99.1 291.5,98 225.8,-0.4 451.6,-0.1 677.3,-0.2 -96.7,-420.2 -193.8,-840.3 -290.8,-1260.4 -27.5,-119.1 -96.8,-228.6 -195,-301.8 -83,-63.1 -187,-98.7 -291.3,-97.9 -225.9,0.3 -451.7,0 -677.5,0.1 96.5,419.1 193.2,838.2 290.2,1257.2 27.6,120 96.3,231.4 195.6,305" /></g></g></svg>